<svg width="20" height="20" viewBox="0 0 20 20" fill="none" xmlns="http://www.w3.org/2000/svg">
<path d="M10 18.75C7.67936 18.75 5.45376 17.8281 3.81282 16.1872C2.17187 14.5462 1.25 12.3206 1.25 10C1.25 7.67936 2.17187 5.45376 3.81282 3.81282C5.45376 2.17187 7.67936 1.25 10 1.25C12.3206 1.25 14.5462 2.17187 16.1872 3.81282C17.8281 5.45376 18.75 7.67936 18.75 10C18.75 12.3206 17.8281 14.5462 16.1872 16.1872C14.5462 17.8281 12.3206 18.75 10 18.75ZM10 20C12.6522 20 15.1957 18.9464 17.0711 17.0711C18.9464 15.1957 20 12.6522 20 10C20 7.34784 18.9464 4.8043 17.0711 2.92893C15.1957 1.05357 12.6522 0 10 0C7.34784 0 4.8043 1.05357 2.92893 2.92893C1.05357 4.8043 0 7.34784 0 10C0 12.6522 1.05357 15.1957 2.92893 17.0711C4.8043 18.9464 7.34784 20 10 20Z" fill="white"/>
<path d="M10.916 8.07477L8.16795 8.45349L8.06954 8.95492L8.60955 9.06444C8.96236 9.15681 9.03196 9.29668 8.95516 9.68331L8.06954 14.2595C7.83674 15.4431 8.19555 16 9.03916 16C9.69318 16 10.4528 15.6675 10.7972 15.2109L10.9028 14.662C10.6628 14.8942 10.3124 14.9866 10.0796 14.9866C9.74958 14.9866 9.62957 14.7319 9.71478 14.2833L10.916 8.07477ZM11 5.31955C11 5.66952 10.8736 6.00515 10.6485 6.25261C10.4235 6.50008 10.1182 6.6391 9.79998 6.6391C9.48171 6.6391 9.17648 6.50008 8.95143 6.25261C8.72638 6.00515 8.59995 5.66952 8.59995 5.31955C8.59995 4.96958 8.72638 4.63395 8.95143 4.38649C9.17648 4.13902 9.48171 4 9.79998 4C10.1182 4 10.4235 4.13902 10.6485 4.38649C10.8736 4.63395 11 4.96958 11 5.31955Z" fill="white"/>
</svg>
