<svg width="22" height="22" viewBox="0 0 22 22" fill="none" xmlns="http://www.w3.org/2000/svg">
<path d="M18.5626 11.5225V10.4706L19.8826 9.31563C20.1259 9.10116 20.2856 8.80759 20.3334 8.48678C20.3812 8.16597 20.3141 7.8386 20.1439 7.5625L18.5214 4.8125C18.4008 4.60369 18.2274 4.43024 18.0187 4.30957C17.8099 4.1889 17.5731 4.12525 17.332 4.125C17.1826 4.12386 17.0339 4.14708 16.892 4.19375L15.2214 4.75751C14.9329 4.56584 14.6321 4.39358 14.3207 4.24188L13.9701 2.50938C13.9072 2.19286 13.7351 1.90853 13.4837 1.70618C13.2323 1.50382 12.9178 1.39632 12.5951 1.4025H9.37761C9.05497 1.39632 8.74043 1.50382 8.48905 1.70618C8.23767 1.90853 8.06548 2.19286 8.00261 2.50938L7.65199 4.24188C7.33844 4.39354 7.03528 4.56579 6.74449 4.75751L5.10824 4.16625C4.96475 4.12887 4.81617 4.11494 4.66824 4.125C4.42711 4.12525 4.19029 4.1889 3.98154 4.30957C3.77278 4.43024 3.59942 4.60369 3.47886 4.8125L1.85636 7.5625C1.69589 7.83818 1.63626 8.16108 1.68768 8.47589C1.73911 8.7907 1.89838 9.07784 2.13824 9.28813L3.43761 10.4775V11.5294L2.13824 12.6844C1.89161 12.8961 1.72798 13.1884 1.67637 13.5093C1.62477 13.8303 1.68854 14.1591 1.85636 14.4375L3.47886 17.1875C3.59942 17.3963 3.77278 17.5698 3.98154 17.6904C4.19029 17.8111 4.42711 17.8748 4.66824 17.875C4.81767 17.8761 4.96628 17.8529 5.10824 17.8063L6.77886 17.2425C7.0673 17.4342 7.36817 17.6064 7.67949 17.7581L8.03011 19.4906C8.09298 19.8072 8.26517 20.0915 8.51655 20.2938C8.76793 20.4962 9.08247 20.6037 9.40511 20.5975H12.6501C12.9728 20.6037 13.2873 20.4962 13.5387 20.2938C13.7901 20.0915 13.9622 19.8072 14.0251 19.4906L14.3757 17.7581C14.6893 17.6065 14.9924 17.4342 15.2832 17.2425L16.947 17.8063C17.0889 17.8529 17.2376 17.8761 17.387 17.875C17.6281 17.8748 17.8649 17.8111 18.0737 17.6904C18.2824 17.5698 18.4558 17.3963 18.5764 17.1875L20.1439 14.4375C20.3043 14.1618 20.364 13.8389 20.3125 13.5241C20.2611 13.2093 20.1018 12.9222 19.862 12.7119L18.5626 11.5225ZM17.332 16.5L14.9739 15.7025C14.4218 16.1701 13.7909 16.5356 13.1107 16.7819L12.6226 19.25H9.37761L8.88949 16.8094C8.21465 16.5561 7.58717 16.1912 7.03324 15.73L4.66824 16.5L3.04574 13.75L4.91574 12.1C4.78862 11.3883 4.78862 10.6598 4.91574 9.94813L3.04574 8.25L4.66824 5.5L7.02636 6.2975C7.57838 5.82993 8.20928 5.46443 8.88949 5.21813L9.37761 2.75H12.6226L13.1107 5.19063C13.7856 5.44392 14.4131 5.80879 14.967 6.27L17.332 5.5L18.9545 8.25L17.0845 9.9C17.2116 10.6117 17.2116 11.3402 17.0845 12.0519L18.9545 13.75L17.332 16.5Z" fill="white"/>
<path d="M11 15.125C10.1842 15.125 9.38663 14.8831 8.70827 14.4298C8.02992 13.9766 7.50121 13.3323 7.189 12.5786C6.87679 11.8248 6.7951 10.9954 6.95426 10.1953C7.11343 9.39508 7.50629 8.66008 8.08319 8.08319C8.66008 7.50629 9.39508 7.11343 10.1953 6.95426C10.9954 6.7951 11.8248 6.87679 12.5786 7.189C13.3323 7.50121 13.9766 8.02992 14.4298 8.70827C14.8831 9.38663 15.125 10.1842 15.125 11C15.1305 11.5432 15.0276 12.0821 14.8222 12.5851C14.6169 13.088 14.3133 13.545 13.9291 13.9291C13.545 14.3133 13.088 14.6169 12.5851 14.8222C12.0821 15.0276 11.5432 15.1305 11 15.125ZM11 8.25C10.6366 8.24153 10.2752 8.30688 9.93769 8.44208C9.60021 8.57729 9.29367 8.77954 9.03661 9.03661C8.77954 9.29367 8.57729 9.60021 8.44208 9.93769C8.30688 10.2752 8.24153 10.6366 8.25 11C8.24153 11.3635 8.30688 11.7248 8.44208 12.0623C8.57729 12.3998 8.77954 12.7063 9.03661 12.9634C9.29367 13.2205 9.60021 13.4227 9.93769 13.5579C10.2752 13.6931 10.6366 13.7585 11 13.75C11.3635 13.7585 11.7248 13.6931 12.0623 13.5579C12.3998 13.4227 12.7063 13.2205 12.9634 12.9634C13.2205 12.7063 13.4227 12.3998 13.5579 12.0623C13.6931 11.7248 13.7585 11.3635 13.75 11C13.7585 10.6366 13.6931 10.2752 13.5579 9.93769C13.4227 9.60021 13.2205 9.29367 12.9634 9.03661C12.7063 8.77954 12.3998 8.57729 12.0623 8.44208C11.7248 8.30688 11.3635 8.24153 11 8.25Z" fill="white"/>
</svg>

