<svg width="116" height="26" viewBox="0 0 116 26" fill="none" xmlns="http://www.w3.org/2000/svg">
<path d="M39.1245 12.9193L42.9248 12.136C44.7041 13.954 46.2707 15.5786 47.6245 17.0098C48.9783 18.4216 50.0904 19.553 50.9607 20.404C50.9607 21.0228 50.7576 21.516 50.3515 21.8835C49.9647 22.2316 49.5102 22.4057 48.988 22.4057C48.4271 22.4057 47.9533 22.2606 47.5665 21.9705C47.199 21.6804 46.8315 21.342 46.4641 20.9552L39.1245 12.9193ZM43.0989 14.1958L38.6893 14.1667L47.6535 4.39026C48.5431 4.4096 49.191 4.59333 49.5972 4.94146C50.0033 5.28958 50.2064 5.71507 50.2064 6.21791C50.2064 6.58538 50.1097 6.9335 49.9163 7.26228C49.7422 7.59107 49.4521 7.94886 49.046 8.33567L43.0989 14.1958ZM36.9197 10.4534H40.604V22.1156C40.4493 22.1542 40.2075 22.2026 39.8787 22.2606C39.5693 22.3186 39.2405 22.3477 38.8924 22.3477C38.1961 22.3477 37.6933 22.2219 37.3838 21.9705C37.0744 21.6998 36.9197 21.2549 36.9197 20.636V10.4534ZM40.604 14.6889H36.9197V4.53531C37.0937 4.49663 37.3355 4.44828 37.6449 4.39026C37.9737 4.33224 38.3025 4.30323 38.6313 4.30323C39.3275 4.30323 39.8304 4.42894 40.1398 4.68036C40.4493 4.91245 40.604 5.35727 40.604 6.01484V14.6889Z" fill="white"/>
<path d="M59.05 19.8528C59.6302 19.8528 60.1524 19.7947 60.6166 19.6787C61.0807 19.5627 61.4192 19.4369 61.6319 19.3016V15.9944L58.7599 16.2845C57.967 16.3425 57.3578 16.5166 56.9323 16.8067C56.5261 17.0774 56.323 17.4836 56.323 18.0251C56.323 18.586 56.5455 19.0308 56.9903 19.3596C57.4351 19.6884 58.1217 19.8528 59.05 19.8528ZM58.905 8.01655C60.8003 8.01655 62.3088 8.4227 63.4306 9.23499C64.5523 10.0279 65.1132 11.285 65.1132 13.0063V19.6787C65.1132 20.1429 64.9971 20.5103 64.7651 20.7811C64.5523 21.0519 64.2719 21.2936 63.9238 21.5064C63.3822 21.8158 62.6957 22.0672 61.864 22.2606C61.0324 22.4734 60.0944 22.5797 59.05 22.5797C57.116 22.5797 55.5978 22.2123 54.4954 21.4773C53.393 20.7231 52.8418 19.611 52.8418 18.1412C52.8418 16.8454 53.248 15.859 54.0602 15.1821C54.8919 14.4859 56.091 14.0604 57.6575 13.9056L61.6029 13.4995V12.9773C61.6029 12.2037 61.3322 11.6428 60.7906 11.2947C60.2685 10.9466 59.5239 10.7725 58.5568 10.7725C57.8026 10.7725 57.0676 10.8692 56.3521 11.0626C55.6365 11.256 54.9982 11.4881 54.4374 11.7589C54.244 11.6042 54.0699 11.3914 53.9152 11.1207C53.7605 10.8499 53.6831 10.5695 53.6831 10.2794C53.6831 9.58311 54.0699 9.07059 54.8435 8.74181C55.385 8.49039 56.0136 8.30665 56.7292 8.19061C57.4641 8.07457 58.1894 8.01655 58.905 8.01655Z" fill="white"/>
<path d="M68.9856 14.4859L72.5539 14.6599V22.0866C72.3992 22.1446 72.1767 22.1929 71.8866 22.2316C71.5965 22.2896 71.2774 22.3186 70.9293 22.3186C70.2717 22.3186 69.7786 22.2026 69.4498 21.9705C69.1403 21.7191 68.9856 21.2839 68.9856 20.6651V14.4859ZM72.5539 16.4876L68.9856 16.3135V3.28787C69.121 3.24919 69.3337 3.20084 69.6238 3.14282C69.9333 3.0848 70.2524 3.05579 70.5812 3.05579C71.2774 3.05579 71.7803 3.1815 72.0897 3.43292C72.3991 3.665 72.5539 4.09049 72.5539 4.70938V16.4876Z" fill="white"/>
<path d="M88.035 18.2572C88.035 19.611 87.5322 20.6747 86.5265 21.4483C85.5208 22.2026 84.0606 22.5797 82.1459 22.5797C80.5987 22.5797 79.3319 22.3477 78.3456 21.8835C77.3592 21.4193 76.866 20.8004 76.866 20.0268C76.866 19.698 76.9434 19.3983 77.0981 19.1275C77.2528 18.8374 77.4559 18.615 77.7073 18.4603C78.2489 18.8084 78.8774 19.1178 79.593 19.3886C80.3086 19.6594 81.1209 19.7947 82.0299 19.7947C83.6738 19.7947 84.4958 19.2919 84.4958 18.2862C84.4958 17.8607 84.3507 17.5223 84.0606 17.2708C83.7705 17.0001 83.3257 16.8067 82.7261 16.6906L81.0725 16.2555C79.6607 15.946 78.6067 15.4625 77.9104 14.805C77.2335 14.1474 76.8951 13.2674 76.8951 12.165C76.8951 10.9466 77.3979 9.95057 78.4036 9.17696C79.4093 8.38402 80.8018 7.98754 82.5811 7.98754C83.5094 7.98754 84.341 8.08424 85.076 8.27765C85.8109 8.45171 86.3814 8.7128 86.7876 9.06092C87.2131 9.40905 87.4258 9.82486 87.4258 10.3084C87.4258 10.6372 87.3484 10.9369 87.1937 11.2077C87.0583 11.4591 86.8746 11.6525 86.6425 11.7879C86.4104 11.6525 86.0913 11.5075 85.6852 11.3527C85.2984 11.1787 84.8535 11.0433 84.3507 10.9466C83.8479 10.8306 83.345 10.7725 82.8422 10.7725C82.0879 10.7725 81.4884 10.8982 81.0435 11.1497C80.618 11.3817 80.4053 11.7202 80.4053 12.165C80.4053 12.4938 80.531 12.7742 80.7824 13.0063C81.0339 13.2384 81.4593 13.4221 82.0589 13.5575L83.5384 13.9056C85.105 14.2731 86.246 14.8146 86.9616 15.5302C87.6772 16.2265 88.035 17.1355 88.035 18.2572Z" fill="white"/>
<path d="M97.0268 19.8528C97.607 19.8528 98.1292 19.7947 98.5934 19.6787C99.0575 19.5627 99.396 19.4369 99.6087 19.3016V15.9944L96.7367 16.2845C95.9438 16.3425 95.3346 16.5166 94.9091 16.8067C94.5029 17.0774 94.2999 17.4836 94.2999 18.0251C94.2999 18.586 94.5223 19.0308 94.9671 19.3596C95.4119 19.6884 96.0985 19.8528 97.0268 19.8528ZM96.8818 8.01655C98.7771 8.01655 100.286 8.4227 101.407 9.23499C102.529 10.0279 103.09 11.285 103.09 13.0063V19.6787C103.09 20.1429 102.974 20.5103 102.742 20.7811C102.529 21.0519 102.249 21.2936 101.901 21.5064C101.359 21.8158 100.672 22.0672 99.8408 22.2606C99.0092 22.4734 98.0712 22.5797 97.0268 22.5797C95.0928 22.5797 93.5746 22.2123 92.4722 21.4773C91.3698 20.7231 90.8186 19.611 90.8186 18.1412C90.8186 16.8454 91.2248 15.859 92.037 15.1821C92.8687 14.4859 94.0678 14.0604 95.6343 13.9056L99.5797 13.4995V12.9773C99.5797 12.2037 99.309 11.6428 98.7674 11.2947C98.2453 10.9466 97.5007 10.7725 96.5336 10.7725C95.7794 10.7725 95.0445 10.8692 94.3289 11.0626C93.6133 11.256 92.9751 11.4881 92.4142 11.7589C92.2208 11.6042 92.0467 11.3914 91.892 11.1207C91.7373 10.8499 91.6599 10.5695 91.6599 10.2794C91.6599 9.58311 92.0467 9.07059 92.8203 8.74181C93.3619 8.49039 93.9904 8.30665 94.706 8.19061C95.4409 8.07457 96.1662 8.01655 96.8818 8.01655Z" fill="white"/>
<path d="M106.788 14.4859H110.357V17.9091C110.357 18.5473 110.54 19.0018 110.908 19.2726C111.295 19.5433 111.836 19.6787 112.532 19.6787C112.842 19.6787 113.171 19.64 113.519 19.5627C113.886 19.4853 114.196 19.3886 114.447 19.2726C114.582 19.4273 114.708 19.611 114.824 19.8238C114.94 20.0365 114.998 20.2976 114.998 20.607C114.998 21.1679 114.728 21.6321 114.186 21.9995C113.664 22.367 112.842 22.5507 111.72 22.5507C110.192 22.5507 108.983 22.2123 108.094 21.5354C107.223 20.8391 106.788 19.7174 106.788 18.1702V14.4859ZM108.964 11.5268V8.7128H114.65C114.728 8.84818 114.805 9.04158 114.882 9.29301C114.979 9.54443 115.027 9.80552 115.027 10.0763C115.027 10.5598 114.911 10.9273 114.679 11.1787C114.447 11.4108 114.147 11.5268 113.78 11.5268H108.964ZM110.357 15.2691H106.788V4.82542C106.943 4.7674 107.165 4.70938 107.456 4.65135C107.765 4.59333 108.084 4.56432 108.413 4.56432C109.09 4.56432 109.583 4.69004 109.892 4.94146C110.202 5.17354 110.357 5.59902 110.357 6.21791V15.2691Z" fill="white"/>
<path d="M13.483 11.0663L21.2392 18.5893C21.7252 19.0573 22.0732 19.6498 22.2451 20.3023C22.5565 21.4955 22.7413 23.3797 21.3235 24.5494C19.1243 26.3665 16.223 26.1098 14.3438 24.2628C12.4646 22.4159 8.03271 17.1926 8.03271 17.1926L13.483 11.0663Z" fill="white"/>
<path opacity="0.2" d="M16.1251 13.6289C16.1251 13.6289 12.7004 15.7128 14.3439 24.2628L10.9316 20.9137L8.79688 18.815L14.3402 11.9109L16.1251 13.6289Z" fill="#002087"/>
<path d="M0 11.0663V3.51229C0 3.51229 0.191021 -0.237415 4.58946 0.0119039C8.98789 0.261223 8.79687 3.51229 8.79687 3.51229V11.0663H0Z" fill="white"/>
<path d="M0 7.52867C0 7.52867 0.673534 9.76137 3.34906 9.9189C4.18633 9.96728 5.31013 9.41034 6.52447 8.55447C8.90851 6.03275 12.3543 2.77548 13.8688 1.36019C14.476 0.784724 15.2196 0.373231 16.0296 0.164452C17.337 -0.164253 18.9048 -0.00796324 20.2742 1.31926C21.9326 2.92433 22.0182 4.44629 21.7491 5.5031C21.5662 6.20159 21.1865 6.83279 20.655 7.32152L15.0125 12.6056C15.0125 12.6056 12.2402 14.9003 12.3357 18.3424C12.4312 21.7845 14.3439 24.2715 14.3439 24.2715L8.79687 18.8138V22.1628C8.79687 22.1628 8.89362 25.8914 4.49395 25.8914C0.0942711 25.8914 0 22.4543 0 22.4543V7.52867Z" fill="#002087"/>
</svg>
