<svg width="46" height="46" viewBox="0 0 46 46" fill="none" xmlns="http://www.w3.org/2000/svg">
<rect width="46" height="46" rx="23" fill="white"/>
<path d="M29.5312 28.5H29.0156V21.1953C29.0156 18.1639 26.7748 15.6588 23.8594 15.242V14.4062C23.8594 13.9314 23.4748 13.5469 23 13.5469C22.5252 13.5469 22.1406 13.9314 22.1406 14.4062V15.242C19.2252 15.6588 16.9844 18.1639 16.9844 21.1953V28.5H16.4688C16.0885 28.5 15.7812 28.8072 15.7812 29.1875V29.875C15.7812 29.9695 15.8586 30.0469 15.9531 30.0469H20.5938C20.5938 31.3746 21.6723 32.4531 23 32.4531C24.3277 32.4531 25.4062 31.3746 25.4062 30.0469H30.0469C30.1414 30.0469 30.2188 29.9695 30.2188 29.875V29.1875C30.2188 28.8072 29.9115 28.5 29.5312 28.5ZM23 31.0781C22.4307 31.0781 21.9688 30.6162 21.9688 30.0469H24.0312C24.0312 30.6162 23.5693 31.0781 23 31.0781ZM18.5312 28.5V21.1953C18.5312 20.0008 18.9953 18.8793 19.8396 18.035C20.684 17.1906 21.8055 16.7266 23 16.7266C24.1945 16.7266 25.316 17.1906 26.1604 18.035C27.0047 18.8793 27.4688 20.0008 27.4688 21.1953V28.5H18.5312Z" fill="#5579F7"/>
</svg>
