<svg width="19" height="20" viewBox="0 0 19 20" fill="none" xmlns="http://www.w3.org/2000/svg">
<path d="M10.119 10C11.5392 10 12.6905 8.84874 12.6905 7.42858C12.6905 6.00841 11.5392 4.85715 10.119 4.85715C8.69887 4.85715 7.54761 6.00841 7.54761 7.42858C7.54761 8.84874 8.69887 10 10.119 10Z" stroke="white" stroke-linecap="round" stroke-linejoin="round"/>
<path d="M1.11914 4.85714H2.40485V3.57143C2.40485 2.88944 2.67577 2.23539 3.15801 1.75315C3.64024 1.27092 4.2943 1 4.97628 1H15.262C15.944 1 16.598 1.27092 17.0803 1.75315C17.5625 2.23539 17.8334 2.88944 17.8334 3.57143V16.4286C17.8334 17.1106 17.5625 17.7646 17.0803 18.2468C16.598 18.7291 15.944 19 15.262 19H4.97628C4.2943 19 3.64024 18.7291 3.15801 18.2468C2.67577 17.7646 2.40485 17.1106 2.40485 16.4286V15.1429H1.11914M1.11914 10H2.40485M1.11914 7.42857H2.40485M1.11914 12.5714H2.40485" stroke="white" stroke-linecap="round" stroke-linejoin="round"/>
<path fill-rule="evenodd" clip-rule="evenodd" d="M13.9762 13.8571V12.5714C13.9762 11.8894 13.7053 11.2354 13.2231 10.7532C12.7409 10.2709 12.0868 10 11.4048 10H8.83339C8.15141 10 7.49735 10.2709 7.01512 10.7532C6.53288 11.2354 6.26196 11.8894 6.26196 12.5714V13.8571C6.26196 14.1981 6.39742 14.5252 6.63854 14.7663C6.87966 15.0074 7.20668 15.1429 7.54768 15.1429H12.6905C13.0315 15.1429 13.3586 15.0074 13.5997 14.7663C13.8408 14.5252 13.9762 14.1981 13.9762 13.8571Z" stroke="white" stroke-linecap="round" stroke-linejoin="round"/>
</svg>
