<svg width="22" height="22" viewBox="0 0 22 22" fill="none" xmlns="http://www.w3.org/2000/svg">
<path d="M3.66675 4.58332C3.66675 4.34021 3.76333 4.10705 3.93523 3.93514C4.10714 3.76323 4.3403 3.66666 4.58341 3.66666H8.25008C8.4932 3.66666 8.72635 3.76323 8.89826 3.93514C9.07017 4.10705 9.16675 4.34021 9.16675 4.58332V9.16666C9.16675 9.40977 9.07017 9.64293 8.89826 9.81484C8.72635 9.98675 8.4932 10.0833 8.25008 10.0833H4.58341C4.3403 10.0833 4.10714 9.98675 3.93523 9.81484C3.76333 9.64293 3.66675 9.40977 3.66675 9.16666V4.58332ZM12.8334 4.58332C12.8334 4.34021 12.93 4.10705 13.1019 3.93514C13.2738 3.76323 13.507 3.66666 13.7501 3.66666H17.4167C17.6599 3.66666 17.893 3.76323 18.0649 3.93514C18.2368 4.10705 18.3334 4.34021 18.3334 4.58332V6.41666C18.3334 6.65977 18.2368 6.89293 18.0649 7.06484C17.893 7.23675 17.6599 7.33332 17.4167 7.33332H13.7501C13.507 7.33332 13.2738 7.23675 13.1019 7.06484C12.93 6.89293 12.8334 6.65977 12.8334 6.41666V4.58332ZM3.66675 14.6667C3.66675 14.4235 3.76333 14.1904 3.93523 14.0185C4.10714 13.8466 4.3403 13.75 4.58341 13.75H8.25008C8.4932 13.75 8.72635 13.8466 8.89826 14.0185C9.07017 14.1904 9.16675 14.4235 9.16675 14.6667V17.4167C9.16675 17.6598 9.07017 17.8929 8.89826 18.0648C8.72635 18.2367 8.4932 18.3333 8.25008 18.3333H4.58341C4.3403 18.3333 4.10714 18.2367 3.93523 18.0648C3.76333 17.8929 3.66675 17.6598 3.66675 17.4167V14.6667ZM12.8334 11.9167C12.8334 11.6735 12.93 11.4404 13.1019 11.2685C13.2738 11.0966 13.507 11 13.7501 11H17.4167C17.6599 11 17.893 11.0966 18.0649 11.2685C18.2368 11.4404 18.3334 11.6735 18.3334 11.9167V17.4167C18.3334 17.6598 18.2368 17.8929 18.0649 18.0648C17.893 18.2367 17.6599 18.3333 17.4167 18.3333H13.7501C13.507 18.3333 13.2738 18.2367 13.1019 18.0648C12.93 17.8929 12.8334 17.6598 12.8334 17.4167V11.9167Z" stroke="white" stroke-width="2"/>
</svg>
