<svg width="21" height="20" viewBox="0 0 21 20" fill="none" xmlns="http://www.w3.org/2000/svg">
<path d="M9.99992 19.1667C4.93717 19.1667 0.833252 15.0628 0.833252 10C0.833252 4.93726 4.93717 0.833346 9.99992 0.833346C11.4232 0.832277 12.8271 1.16314 14.1001 1.79964C15.3731 2.43615 16.4801 3.36076 17.3333 4.50001H14.8491C13.7905 3.56663 12.4852 2.95851 11.0896 2.74863C9.69398 2.53875 8.26748 2.73603 6.98123 3.31679C5.69498 3.89755 4.60364 4.83713 3.83815 6.02277C3.07266 7.20841 2.66555 8.58975 2.66567 10.001C2.66578 11.4123 3.07313 12.7936 3.83881 13.9791C4.6045 15.1646 5.696 16.104 6.98235 16.6845C8.26869 17.2651 9.69523 17.4621 11.0908 17.252C12.4863 17.0419 13.7916 16.4336 14.85 15.5H17.3342C16.481 16.6394 15.3738 17.5641 14.1006 18.2006C12.8274 18.8371 11.4233 19.1679 9.99992 19.1667ZM16.4166 13.6667V10.9167H9.08325V9.08335H16.4166V6.33335L20.9999 10L16.4166 13.6667Z" fill="white"/>
</svg>
