<svg width="46" height="46" viewBox="0 0 46 46" fill="none" xmlns="http://www.w3.org/2000/svg">
<rect width="46" height="46" rx="23" fill="white"/>
<path d="M31.2499 31.25L27.1378 27.1305M29.4166 21.625C29.4166 23.6915 28.5957 25.6733 27.1345 27.1345C25.6732 28.5957 23.6914 29.4166 21.6249 29.4166C19.5584 29.4166 17.5766 28.5957 16.1154 27.1345C14.6542 25.6733 13.8333 23.6915 13.8333 21.625C13.8333 19.5585 14.6542 17.5767 16.1154 16.1154C17.5766 14.6542 19.5584 13.8333 21.6249 13.8333C23.6914 13.8333 25.6732 14.6542 27.1345 16.1154C28.5957 17.5767 29.4166 19.5585 29.4166 21.625V21.625Z" stroke="#5579F7" stroke-width="2" stroke-linecap="round"/>
</svg>
